<?xml version="1.0" encoding="UTF-8" standalone="no"?>
<!-- Created with Inkscape (http://www.inkscape.org/) -->

<svg
   xmlns:dc="http://purl.org/dc/elements/1.1/"
   xmlns:cc="http://creativecommons.org/ns#"
   xmlns:rdf="http://www.w3.org/1999/02/22-rdf-syntax-ns#"
   xmlns:svg="http://www.w3.org/2000/svg"
   xmlns="http://www.w3.org/2000/svg"
   xmlns:sodipodi="http://sodipodi.sourceforge.net/DTD/sodipodi-0.dtd"
   xmlns:inkscape="http://www.inkscape.org/namespaces/inkscape"
   width="512mm"
   height="512mm"
   viewBox="0 0 512 512"
   version="1.1"
   id="svg3817"
   inkscape:version="0.92.2 (5c3e80d, 2017-08-06)"
   sodipodi:docname="duplicatePalette.svg">
  <defs
     id="defs3811">
    <inkscape:path-effect
       fuse_tolerance="0"
       vertical_pattern="false"
       prop_units="false"
       tang_offset="0"
       normal_offset="0"
       spacing="0"
       scale_y_rel="false"
       prop_scale="3.047349"
       copytype="single_stretched"
       pattern="m -24.555386,48.26425 c 0,-2.76 2.24,-5 5,-5 2.76,0 5,2.24 5,5 0,2.76 -2.24,5 -5,5 -2.76,0 -5,-2.24 -5,-5 z"
       is_visible="true"
       id="path-effect5533"
       effect="skeletal" />
    <inkscape:path-effect
       is_visible="true"
       id="path-effect5531"
       effect="spiro" />
    <inkscape:path-effect
       effect="skeletal"
       id="path-effect4404"
       is_visible="true"
       pattern="M 0,5 C 0,2.24 2.24,0 5,0 7.76,0 10,2.24 10,5 10,7.76 7.76,10 5,10 2.24,10 0,7.76 0,5 Z"
       copytype="single_stretched"
       prop_scale="1.226072"
       scale_y_rel="false"
       spacing="0"
       normal_offset="0"
       tang_offset="0"
       prop_units="false"
       vertical_pattern="false"
       fuse_tolerance="0" />
    <inkscape:path-effect
       effect="spiro"
       id="path-effect4402"
       is_visible="true" />
    <inkscape:path-effect
       effect="bspline"
       id="path-effect4368"
       is_visible="true"
       weight="33.333333"
       steps="2"
       helper_size="0"
       apply_no_weight="true"
       apply_with_weight="true"
       only_selected="false" />
    <inkscape:path-effect
       effect="bspline"
       id="path-effect4364"
       is_visible="true"
       weight="33.333333"
       steps="2"
       helper_size="0"
       apply_no_weight="true"
       apply_with_weight="true"
       only_selected="false" />
    <inkscape:path-effect
       effect="spiro"
       id="path-effect4402-2"
       is_visible="true" />
    <inkscape:path-effect
       effect="skeletal"
       id="path-effect4404-7"
       is_visible="true"
       pattern="M 0,5 C 0,2.24 2.24,0 5,0 7.76,0 10,2.24 10,5 10,7.76 7.76,10 5,10 2.24,10 0,7.76 0,5 Z"
       copytype="single_stretched"
       prop_scale="1.226072"
       scale_y_rel="false"
       spacing="0"
       normal_offset="0"
       tang_offset="0"
       prop_units="false"
       vertical_pattern="false"
       fuse_tolerance="0" />
    <inkscape:path-effect
       effect="spiro"
       id="path-effect4402-6"
       is_visible="true" />
    <inkscape:path-effect
       effect="skeletal"
       id="path-effect4404-1"
       is_visible="true"
       pattern="M 0,5 C 0,2.24 2.24,0 5,0 7.76,0 10,2.24 10,5 10,7.76 7.76,10 5,10 2.24,10 0,7.76 0,5 Z"
       copytype="single_stretched"
       prop_scale="1.226072"
       scale_y_rel="false"
       spacing="0"
       normal_offset="0"
       tang_offset="0"
       prop_units="false"
       vertical_pattern="false"
       fuse_tolerance="0" />
  </defs>
  <sodipodi:namedview
     id="base"
     pagecolor="#ffffff"
     bordercolor="#666666"
     borderopacity="1.0"
     inkscape:pageopacity="0.0"
     inkscape:pageshadow="2"
     inkscape:zoom="0.32"
     inkscape:cx="308.22652"
     inkscape:cy="1073.5444"
     inkscape:document-units="mm"
     inkscape:current-layer="layer1"
     showgrid="false"
     fit-margin-top="0"
     fit-margin-left="0"
     fit-margin-right="0"
     fit-margin-bottom="0"
     inkscape:window-width="1874"
     inkscape:window-height="1039"
     inkscape:window-x="46"
     inkscape:window-y="0"
     inkscape:window-maximized="1" />
  <metadata
     id="metadata3814">
    <rdf:RDF>
      <cc:Work
         rdf:about="">
        <dc:format>image/svg+xml</dc:format>
        <dc:type
           rdf:resource="http://purl.org/dc/dcmitype/StillImage" />
        <dc:title></dc:title>
      </cc:Work>
    </rdf:RDF>
  </metadata>
  <g
     inkscape:label="Layer 1"
     inkscape:groupmode="layer"
     id="layer1"
     transform="translate(-11.2606,302.76524)">
    <g
       id="g5610"
       transform="matrix(1.0432489,0,0,1.0432489,-14.237537,10.131486)">
      <g
         transform="matrix(2.4854568,0,0,2.4854568,-17.931873,-366.71334)"
         id="g4547">
        <path
           style="fill:#000000;fill-rule:evenodd;stroke:none;stroke-width:1.22586119px;stroke-linecap:butt;stroke-linejoin:miter;stroke-opacity:1"
           d="m 120.23228,207.18175 c 0.0727,0.47262 -3.58016,1.95232 -10.87556,2.60833 -7.07804,0.63647 -18.356804,0.45123 -31.348105,-3.87983 C 66.411555,202.04133 53.199339,194.73256 41.721256,182.48858 30.374622,170.38766 20.859922,153.3581 17.94211,133.06219 15.453417,115.67007 18.031476,96.197104 27.32371,78.54297 33.796472,66.299901 43.422495,55.371389 55.409736,46.992016 66.781705,39.022078 80.236573,33.366668 94.676383,31.202051 c 5.061894,-0.749602 10.200677,-1.068395 15.357677,-0.961643 9.18144,0.19006 18.20872,1.724119 26.74635,4.395059 13.85975,4.320528 26.39618,11.586102 36.63774,20.95509 7.25416,6.614686 13.37575,14.304538 17.7705,22.888235 4.61547,9.008206 7.055,18.887827 6.90655,28.685888 -0.16136,10.42746 -3.48576,20.41391 -9.35286,28.38937 -6.37673,8.6429 -15.63407,14.33235 -25.38139,16.17128 -4.79212,0.84341 -9.38894,0.81525 -13.42468,0.75136 -4.36334,-0.0229 -8.15669,-0.0911 -11.68702,0.565 -3.6777,0.72162 -6.95785,1.96082 -9.16581,4.077 -1.17471,1.08618 -2.11806,2.34014 -2.67723,3.66623 -0.58035,1.37212 -0.83925,2.84777 -0.67691,4.17739 0.12473,1.76721 1.15662,3.63933 2.3886,5.35274 1.33589,1.80659 3.23864,3.54695 5.04657,5.26708 2.06056,1.91771 4.03647,3.86329 5.74224,6.23701 1.90191,2.60318 3.08122,5.62739 3.28155,8.74162 0.13054,3.11901 -0.80078,5.9086 -2.14878,8.07316 -1.57639,2.52984 -3.65482,4.32631 -5.6193,5.53688 -4.07215,2.47661 -8.25891,3.1276 -10.43045,3.31737 -2.43994,0.21322 -3.71167,-0.009 -3.75745,-0.30642 -0.0544,-0.35394 1.12256,-0.79668 3.33205,-1.61471 1.87651,-0.69476 5.76465,-2.07456 8.6537,-4.5099 1.43575,-1.19392 2.88228,-2.77577 3.7685,-4.67599 0.74879,-1.60716 1.19403,-3.54648 0.90415,-5.36971 -0.22253,-1.85253 -1.25345,-3.72527 -2.73874,-5.57933 -1.39312,-1.70358 -3.17616,-3.16327 -5.31075,-4.93734 -1.91092,-1.55265 -4.16311,-3.39529 -6.19544,-5.72843 -1.95612,-2.20542 -3.65872,-5.11583 -4.34501,-8.67318 -0.45461,-2.72324 -0.18666,-5.54088 0.79049,-8.16155 0.93469,-2.50362 2.40959,-4.77794 4.30229,-6.67105 3.62475,-3.54899 8.2611,-5.7774 13.1239,-6.78282 4.56515,-0.98081 8.97473,-1.14692 13.34226,-1.24223 4.04009,-0.13084 8.0873,-0.20506 11.61307,-1.01389 7.15537,-1.51925 14.091,-6.19797 18.77002,-12.82251 4.36005,-6.14753 6.72146,-14.11007 6.73394,-22.33806 0.0154,-7.77787 -2.18344,-15.810134 -6.08316,-23.25366 -3.73213,-7.117805 -9.09468,-13.610256 -15.49216,-19.379221 -8.99988,-8.085302 -20.07163,-14.378249 -32.23813,-18.128983 -7.49462,-2.300984 -15.40166,-3.633469 -23.38743,-3.805192 -4.486,-0.09647 -8.94007,0.174719 -13.305766,0.821136 C 84.032458,45.130476 72.26231,50.016968 62.273917,56.878121 51.767567,64.116639 43.233029,73.527136 37.516576,84.009998 29.207035,99.173129 26.547287,116.33051 28.336699,131.7051 c 2.078239,17.97147 10.0749,33.60503 19.845713,44.96872 9.911006,11.52318 21.593391,18.90482 32.05729,23.2282 11.696034,4.83572 22.258258,6.08807 29.063208,6.50371 7.00528,0.42787 10.82491,0.0967 10.92937,0.77602 z"
           id="path4400"
           inkscape:connector-curvature="0"
           inkscape:path-effect="#path-effect4402;#path-effect4404"
           inkscape:original-d="M 120.23228,207.18175 C 123.13039,214.82334 82.257743,177.02874 44.951834,179.5812 7.6458925,182.13369 39.477679,126.95814 32.420143,81.276484 25.36264,35.594793 125.94066,60.27899 169.40977,60.009365 c 43.46908,-0.269596 -11.66276,76.548175 -6.99294,86.964115 4.66981,10.41595 -25.15214,-2.43013 -40.40181,18.55425 -15.24967,20.98439 8.93655,20.90156 17.52445,25.25837 8.5879,4.35683 -22.20528,8.75402 -19.30719,16.39565 z"
           sodipodi:nodetypes="ccsssssc" />
        <ellipse
           style="fill:none;fill-opacity:1;stroke:#000000;stroke-width:4.59423494;stroke-linecap:round;stroke-linejoin:miter;stroke-miterlimit:4;stroke-dasharray:none;stroke-opacity:1"
           id="path4412-3"
           cx="-180.5228"
           cy="-68.672569"
           rx="11.276622"
           ry="11.276427"
           transform="rotate(-135.33612)" />
        <ellipse
           style="fill:none;fill-opacity:1;stroke:#000000;stroke-width:6.12564611;stroke-linecap:round;stroke-linejoin:miter;stroke-miterlimit:4;stroke-dasharray:none;stroke-opacity:1"
           id="path4412-7"
           cx="-125.53378"
           cy="24.834156"
           rx="15.035496"
           ry="15.035235"
           transform="rotate(-135.33612)" />
        <ellipse
           style="fill:none;fill-opacity:1;stroke:#000000;stroke-width:6.12564611;stroke-linecap:round;stroke-linejoin:miter;stroke-miterlimit:4;stroke-dasharray:none;stroke-opacity:1"
           id="path4412-5"
           cx="-172.00688"
           cy="41.000164"
           rx="15.035496"
           ry="15.035235"
           transform="rotate(-135.33612)" />
        <ellipse
           style="fill:none;fill-opacity:1;stroke:#000000;stroke-width:6.12564611;stroke-linecap:round;stroke-linejoin:miter;stroke-miterlimit:4;stroke-dasharray:none;stroke-opacity:1"
           id="path4412-7-3"
           cx="-109.90227"
           cy="-22.982515"
           rx="15.035495"
           ry="15.035234"
           transform="rotate(-135.33612)" />
        <ellipse
           style="fill:none;fill-opacity:1;stroke:#000000;stroke-width:6.12564611;stroke-linecap:round;stroke-linejoin:miter;stroke-miterlimit:4;stroke-dasharray:none;stroke-opacity:1"
           id="path4412-7-5"
           cx="-140.96283"
           cy="-60.290779"
           rx="15.035495"
           ry="15.035234"
           transform="rotate(-135.33612)" />
      </g>
      <path
         sodipodi:nodetypes="ccsccccc"
         inkscape:connector-curvature="0"
         id="path5599"
         d="m 169.57666,125.7961 c 17.47967,14.2255 35.73333,24.46932 52.69833,31.47874 29.06998,12.01899 55.32194,15.13166 72.23535,16.1647 17.4113,1.06346 26.90482,0.2404 27.16448,1.92878 v 0 c 0.18063,1.17467 -8.89833,4.85241 -27.03076,6.4829 -17.59214,1.58189 -45.62504,1.12149 -77.91434,-9.64316 -18.47088,-6.16212 -55.22699,-28.51505 -73.05032,-43.84618"
         style="fill:#000000;fill-rule:evenodd;stroke:none;stroke-width:3.04682493px;stroke-linecap:butt;stroke-linejoin:miter;stroke-opacity:1" />
      <path
         sodipodi:nodetypes="ccccccccccccccccccccccccccccccccccccc"
         inkscape:connector-curvature="0"
         id="path5595"
         d="m 406.77999,-233.9904 c 16.02539,8.00753 33.96687,20.58396 47.08599,32.58535 18.02991,16.44052 33.24485,35.55332 44.16782,56.88773 11.47155,22.3895 17.5349,46.94487 17.16592,71.29754 -0.40104,25.917 -8.66371,50.73788 -23.24612,70.56054 -15.84908,21.48157 -38.85781,35.622437 -63.08436,40.193035 -11.91059,2.096241 -23.3358,2.026258 -33.36645,1.867455 -10.8449,-0.05702 -20.27311,-0.226351 -29.04758,1.404277 -9.14077,1.793583 -17.29344,4.873545 -22.78122,10.133224 -2.91971,2.699676 -5.26436,5.816308 -6.65415,9.112276 -1.44244,3.41032 -2.08593,7.077974 -1.68242,10.3827 0.30999,4.392321 2.87473,9.045389 5.93674,13.30399 3.32031,4.490218 8.04951,8.815811 12.54305,13.091108 5.12144,4.766385 10.03247,9.602045 14.27209,15.501835 4.72711,6.47009 7.65822,13.98664 8.15615,21.72692 0.32444,7.75216 -1.99032,14.68554 -5.34072,20.06547 -3.91803,6.28779 -9.08388,10.75288 -13.96652,13.76167 -10.12115,6.15553 -20.52717,7.77353 -25.92442,8.24518 -6.06438,0.52996 -9.2252,-0.0217 -9.339,-0.76158 -0.13528,-0.87968 2.79009,-1.98011 8.2817,-4.0133 4.66397,-1.72678 14.32776,-5.1562 21.50838,-11.20916 3.5685,-2.96743 7.16378,-6.89906 9.36644,-11.62198 1.8611,-3.99452 2.96772,-8.81462 2.24722,-13.34619 -0.55309,-4.60436 -3.11539,-9.25899 -6.807,-13.86716 -3.46255,-4.23417 -7.89421,-7.86219 -13.19965,-12.27156 -4.74951,-3.85902 -10.34724,-8.43883 -15.39851,-14.237753 -4.86182,-5.481479 -9.09359,-12.715161 -10.79933,-21.556822 -1.12991,-6.768491 -0.46392,-13.771589 1.96474,-20.28518 2.32315,-6.22263 5.98892,-11.875347 10.69313,-16.580591 9.00918,-8.820864 20.53262,-14.359493 32.61889,-16.858403 11.3465,-2.437765 22.30633,-2.850647 33.16162,-3.087502 10.04148,-0.325226 20.10064,-0.509694 28.86378,-2.519998 17.78437,-3.776027 35.02258,-15.404781 46.65208,-31.869801 10.83672,-15.27942 16.70592,-35.06994 16.73693,-55.52027 0.0382,-19.33157 -5.42684,-39.29541 -15.11944,-57.79598 -9.27605,-17.69099 -22.60445,-33.8277 -38.5051,-48.16621 -12.11233,-10.88147 -25.73453,-20.45676 -40.48102,-28.42999"
         style="fill:#000000;fill-rule:evenodd;stroke:none;stroke-width:3.04682493px;stroke-linecap:butt;stroke-linejoin:miter;stroke-opacity:1" />
    </g>
  </g>
</svg>
